<?xml version="1.0" encoding="UTF-8"?>
<svg id="Capa_2" data-name="Capa 2" xmlns="http://www.w3.org/2000/svg" xmlns:xlink="http://www.w3.org/1999/xlink" viewBox="0 0 444.26 115.83">
  <defs>
    <style>
      .cls-1 {
        fill: url(#Degradado_sin_nombre_150);
      }
    </style>
    <linearGradient id="Degradado_sin_nombre_150" data-name="Degradado sin nombre 150" x1="38.6" y1="165.84" x2="407.28" y2="-47.02" gradientUnits="userSpaceOnUse">
      <stop offset="0" stop-color="#f300ff"/>
      <stop offset=".18" stop-color="#f101fe"/>
      <stop offset=".24" stop-color="#ea08fe"/>
      <stop offset=".29" stop-color="#df14fe"/>
      <stop offset=".33" stop-color="#ce25fd"/>
      <stop offset=".36" stop-color="#b93cfd"/>
      <stop offset=".39" stop-color="#9f57fc"/>
      <stop offset=".42" stop-color="#7f78fb"/>
      <stop offset=".45" stop-color="#5b9efa"/>
      <stop offset=".47" stop-color="#32caf8"/>
      <stop offset=".49" stop-color="#05f8f7"/>
      <stop offset=".49" stop-color="#00fff7"/>
      <stop offset=".51" stop-color="#1fdef8"/>
      <stop offset=".54" stop-color="#4bb0f9"/>
      <stop offset=".58" stop-color="#7386fa"/>
      <stop offset=".61" stop-color="#9561fb"/>
      <stop offset=".65" stop-color="#b243fc"/>
      <stop offset=".69" stop-color="#ca2afd"/>
      <stop offset=".74" stop-color="#dc17fe"/>
      <stop offset=".8" stop-color="#e90afe"/>
      <stop offset=".87" stop-color="#f002fe"/>
      <stop offset="1" stop-color="#f300ff"/>
    </linearGradient>
  </defs>
  <g id="Capa_3" data-name="Capa 3">
    <path class="cls-1" d="M167.79.5l9.39,6.9.13.1h256.7l4.88,4.88,4.88,4.88v88.32l-5.66,5.66-4.09,4.09H17.05l-11.96-11.96-4.59-4.59V17.05L11.08,6.47,17.05.5h150.74M167.96,0H16.85C10.27,6.58,6.58,10.27,0,16.85v82.13c6.58,6.58,10.27,10.27,16.85,16.85h417.37c3.92-3.92,6.12-6.12,10.04-10.04V17.04c-3.92-3.92-6.12-6.12-10.04-10.04H177.48l-9.52-7h0Z"/>
  </g>
</svg>